<?xml version="1.0" encoding="UTF-8"?>
<svg xmlns="http://www.w3.org/2000/svg" width="832" height="518" viewBox="0 0 832 518" style="max-width: 832px; width: 100%; height: auto;" role="img">
  <rect width="100%" height="100%" rx="14" fill="#0a0810"/>
  <rect x="0.5" y="0.5" width="831" height="517" rx="14" fill="none" stroke="#2d2b31" stroke-width="1"/>
  <text x="416" y="23" text-anchor="middle" font-family='ui-monospace, "Cascadia Mono", "SF Mono", Menlo, Consolas, "DejaVu Sans Mono", monospace' font-size="13" fill="#8a8a8a">klink</text>
  <g font-family='ui-monospace, "Cascadia Mono", "SF Mono", Menlo, Consolas, "DejaVu Sans Mono", monospace' font-size="16" fill="#ddd8ea">
    <rect x="46.4" y="68" width="4.8" height="22" fill="#c8d0d8"/>
    <rect x="51.2" y="68" width="9.6" height="11" fill="#c8d0d8"/>
    <rect x="60.8" y="68" width="4.8" height="22" fill="#c8d0d8"/>
    <rect x="80" y="68" width="9.6" height="22" fill="#e06c75"/>
    <rect x="89.6" y="79" width="9.6" height="11" fill="#e06c75"/>
    <rect x="99.2" y="68" width="9.6" height="11" fill="#e06c75"/>
    <rect x="118.4" y="68" width="9.6" height="22" fill="#d0adfd"/>
    <rect x="156.8" y="68" width="9.6" height="22" fill="#bd9efc"/>
    <rect x="176" y="68" width="9.6" height="22" fill="#b496fb"/>
    <rect x="185.6" y="79" width="9.6" height="11" fill="#af92fb"/>
    <rect x="204.8" y="68" width="9.6" height="22" fill="#a68af9"/>
    <rect x="224" y="68" width="9.6" height="22" fill="#9f83f4"/>
    <rect x="233.6" y="79" width="9.6" height="11" fill="#9c7ff1"/>
    <rect x="243.2" y="68" width="9.6" height="11" fill="#997bee"/>
    <rect x="46.4" y="90" width="4.8" height="22" fill="#e5c07b"/>
    <rect x="51.2" y="90" width="9.6" height="22" fill="#e5c07b"/>
    <rect x="60.8" y="90" width="4.8" height="22" fill="#e5c07b"/>
    <rect x="80" y="90" width="9.6" height="22" fill="#e06c75"/>
    <rect x="99.2" y="90" width="9.6" height="22" fill="#e06c75"/>
    <rect x="118.4" y="90" width="9.6" height="22" fill="#7d5dd7"/>
    <rect x="128" y="101" width="9.6" height="11" fill="#7a5ad2"/>
    <rect x="137.6" y="101" width="9.6" height="11" fill="#7658cc"/>
    <rect x="156.8" y="90" width="9.6" height="22" fill="#6e52c0"/>
    <rect x="176" y="90" width="9.6" height="22" fill="#674db4"/>
    <rect x="195.2" y="90" width="9.6" height="11" fill="#5f47a8"/>
    <rect x="204.8" y="90" width="9.6" height="22" fill="#5b45a2"/>
    <rect x="224" y="90" width="9.6" height="22" fill="#543f96"/>
    <rect x="243.2" y="90" width="9.6" height="22" fill="#4c3a8a"/>
    <text x="41.6" y="128" textLength="748.8" lengthAdjust="spacingAndGlyphs" xml:space="preserve" fill="#6b6577">──────────────────────────────────────────────────────────────────────────────</text>
    <rect x="41.6" y="156" width="4.8" height="22" fill="#6b6577"/>
    <text x="60.8" y="172" textLength="28.8" lengthAdjust="spacingAndGlyphs" xml:space="preserve" fill="#b9a7e6">All</text>
    <text x="204.8" y="172" textLength="19.2" lengthAdjust="spacingAndGlyphs" xml:space="preserve" fill="#6b6577">╭─</text>
    <text x="233.6" y="172" textLength="57.6" lengthAdjust="spacingAndGlyphs" xml:space="preserve" fill="#6b6577" font-weight="600">Search</text>
    <text x="300.8" y="172" textLength="489.6" lengthAdjust="spacingAndGlyphs" xml:space="preserve" fill="#6b6577">──────────────────────────────────────────────────╮</text>
    <text x="60.8" y="194" textLength="48" lengthAdjust="spacingAndGlyphs" xml:space="preserve" fill-opacity="0.55">Games</text>
    <rect x="208.9" y="178" width="1.4" height="22" fill="#6b6577"/>
    <text x="224" y="194" textLength="9.6" lengthAdjust="spacingAndGlyphs" xml:space="preserve" fill="#a78bfa">❯</text>
    <text x="243.2" y="194" textLength="288" lengthAdjust="spacingAndGlyphs" xml:space="preserve" fill-opacity="0.55">Search or paste a magnet link…</text>
    <rect x="784.9" y="178" width="1.4" height="22" fill="#6b6577"/>
    <text x="60.8" y="216" textLength="57.6" lengthAdjust="spacingAndGlyphs" xml:space="preserve" fill-opacity="0.55">Movies</text>
    <text x="204.8" y="216" textLength="585.6" lengthAdjust="spacingAndGlyphs" xml:space="preserve" fill="#6b6577">╰───────────────────────────────────────────────────────────╯</text>
    <text x="60.8" y="238" textLength="19.2" lengthAdjust="spacingAndGlyphs" xml:space="preserve" fill-opacity="0.55">TV</text>
    <text x="60.8" y="260" textLength="48" lengthAdjust="spacingAndGlyphs" xml:space="preserve" fill-opacity="0.55">Anime</text>
    <text x="204.8" y="260" textLength="19.2" lengthAdjust="spacingAndGlyphs" xml:space="preserve" fill="#a78bfa">╭─</text>
    <text x="233.6" y="260" textLength="96" lengthAdjust="spacingAndGlyphs" xml:space="preserve" fill="#a78bfa" font-weight="600">Latest (5)</text>
    <text x="339.2" y="260" textLength="451.2" lengthAdjust="spacingAndGlyphs" xml:space="preserve" fill="#a78bfa">──────────────────────────────────────────────╮</text>
    <rect x="208.9" y="266" width="1.4" height="22" fill="#a78bfa"/>
    <text x="224" y="282" textLength="240" lengthAdjust="spacingAndGlyphs" xml:space="preserve" fill-opacity="0.55">newest across all sources</text>
    <rect x="784.9" y="266" width="1.4" height="22" fill="#a78bfa"/>
    <text x="60.8" y="304" textLength="86.4" lengthAdjust="spacingAndGlyphs" xml:space="preserve" fill-opacity="0.55">Downloads</text>
    <rect x="208.9" y="288" width="1.4" height="22" fill="#a78bfa"/>
    <rect x="784.9" y="288" width="1.4" height="22" fill="#a78bfa"/>
    <text x="60.8" y="326" textLength="67.2" lengthAdjust="spacingAndGlyphs" xml:space="preserve" fill-opacity="0.55">Seeding</text>
    <rect x="208.9" y="310" width="1.4" height="22" fill="#a78bfa"/>
    <text x="252.8" y="326" textLength="9.6" lengthAdjust="spacingAndGlyphs" xml:space="preserve" fill-opacity="0.55" font-weight="600">#</text>
    <text x="272" y="326" textLength="38.4" lengthAdjust="spacingAndGlyphs" xml:space="preserve" fill-opacity="0.55" font-weight="600">Name</text>
    <text x="588.8" y="326" textLength="38.4" lengthAdjust="spacingAndGlyphs" xml:space="preserve" fill-opacity="0.55" font-weight="600">Size</text>
    <text x="646.4" y="326" textLength="76.8" lengthAdjust="spacingAndGlyphs" xml:space="preserve" fill-opacity="0.55" font-weight="600">Seed:Lch</text>
    <text x="742.4" y="326" textLength="28.8" lengthAdjust="spacingAndGlyphs" xml:space="preserve" fill-opacity="0.55" font-weight="600">Src</text>
    <rect x="784.9" y="310" width="1.4" height="22" fill="#a78bfa"/>
    <text x="60.8" y="348" textLength="86.4" lengthAdjust="spacingAndGlyphs" xml:space="preserve" fill-opacity="0.55">Completed</text>
    <rect x="208.9" y="332" width="1.4" height="22" fill="#a78bfa"/>
    <text x="224" y="348" textLength="9.6" lengthAdjust="spacingAndGlyphs" xml:space="preserve" fill="#a78bfa">❯</text>
    <text x="252.8" y="348" textLength="9.6" lengthAdjust="spacingAndGlyphs" xml:space="preserve" fill-opacity="0.55">1</text>
    <text x="272" y="348" textLength="249.6" lengthAdjust="spacingAndGlyphs" xml:space="preserve" fill="#a78bfa" font-weight="600">Oppenheimer (2023) [1080p…</text>
    <text x="560" y="348" textLength="67.2" lengthAdjust="spacingAndGlyphs" xml:space="preserve" fill-opacity="0.55">1.96 GB</text>
    <text x="656" y="348" textLength="67.2" lengthAdjust="spacingAndGlyphs" xml:space="preserve" fill="#86d6a2">1240:88</text>
    <text x="742.4" y="348" textLength="28.8" lengthAdjust="spacingAndGlyphs" xml:space="preserve" fill="#86d6a2">YTS</text>
    <rect x="784.9" y="332" width="1.4" height="22" fill="#a78bfa"/>
    <rect x="208.9" y="354" width="1.4" height="22" fill="#a78bfa"/>
    <text x="252.8" y="370" textLength="9.6" lengthAdjust="spacingAndGlyphs" xml:space="preserve" fill-opacity="0.55">2</text>
    <text x="272" y="370" textLength="249.6" lengthAdjust="spacingAndGlyphs" xml:space="preserve" fill-opacity="0.55">Dune: Part Two (2024) [21…</text>
    <text x="560" y="370" textLength="67.2" lengthAdjust="spacingAndGlyphs" xml:space="preserve" fill-opacity="0.55">7.82 GB</text>
    <text x="665.6" y="370" textLength="57.6" lengthAdjust="spacingAndGlyphs" xml:space="preserve" fill="#86d6a2">910:41</text>
    <text x="742.4" y="370" textLength="28.8" lengthAdjust="spacingAndGlyphs" xml:space="preserve" fill="#86d6a2" fill-opacity="0.55">YTS</text>
    <rect x="784.9" y="354" width="1.4" height="22" fill="#a78bfa"/>
    <rect x="208.9" y="376" width="1.4" height="22" fill="#a78bfa"/>
    <text x="252.8" y="392" textLength="9.6" lengthAdjust="spacingAndGlyphs" xml:space="preserve" fill-opacity="0.55">3</text>
    <text x="272" y="392" textLength="249.6" lengthAdjust="spacingAndGlyphs" xml:space="preserve" fill-opacity="0.55">Breaking Bad S05E14 1080p…</text>
    <text x="560" y="392" textLength="67.2" lengthAdjust="spacingAndGlyphs" xml:space="preserve" fill-opacity="0.55">1.49 GB</text>
    <text x="665.6" y="392" textLength="57.6" lengthAdjust="spacingAndGlyphs" xml:space="preserve" fill="#86d6a2">540:31</text>
    <text x="732.8" y="392" textLength="38.4" lengthAdjust="spacingAndGlyphs" xml:space="preserve" fill="#f0c560" fill-opacity="0.55">EZTV</text>
    <rect x="784.9" y="376" width="1.4" height="22" fill="#a78bfa"/>
    <rect x="208.9" y="398" width="1.4" height="22" fill="#a78bfa"/>
    <text x="252.8" y="414" textLength="9.6" lengthAdjust="spacingAndGlyphs" xml:space="preserve" fill-opacity="0.55">4</text>
    <text x="272" y="414" textLength="249.6" lengthAdjust="spacingAndGlyphs" xml:space="preserve" fill-opacity="0.55">[Erai-raws] Jujutsu Kaise…</text>
    <text x="560" y="414" textLength="67.2" lengthAdjust="spacingAndGlyphs" xml:space="preserve" fill-opacity="0.55">1.21 GB</text>
    <text x="665.6" y="414" textLength="57.6" lengthAdjust="spacingAndGlyphs" xml:space="preserve" fill="#86d6a2">320:12</text>
    <text x="732.8" y="414" textLength="38.4" lengthAdjust="spacingAndGlyphs" xml:space="preserve" fill="#d8b4fe" fill-opacity="0.55">NYAA</text>
    <rect x="784.9" y="398" width="1.4" height="22" fill="#a78bfa"/>
    <rect x="208.9" y="420" width="1.4" height="22" fill="#a78bfa"/>
    <text x="252.8" y="436" textLength="9.6" lengthAdjust="spacingAndGlyphs" xml:space="preserve" fill-opacity="0.55">5</text>
    <text x="272" y="436" textLength="192" lengthAdjust="spacingAndGlyphs" xml:space="preserve" fill-opacity="0.55">Frieren - 28 [1080p]</text>
    <text x="560" y="436" textLength="67.2" lengthAdjust="spacingAndGlyphs" xml:space="preserve" fill-opacity="0.55">1.30 GB</text>
    <text x="713.6" y="436" textLength="9.6" lengthAdjust="spacingAndGlyphs" xml:space="preserve" fill-opacity="0.55">-</text>
    <text x="742.4" y="436" textLength="28.8" lengthAdjust="spacingAndGlyphs" xml:space="preserve" fill="#b9a7e6" fill-opacity="0.55">SUB</text>
    <rect x="784.9" y="420" width="1.4" height="22" fill="#a78bfa"/>
    <text x="204.8" y="458" textLength="585.6" lengthAdjust="spacingAndGlyphs" xml:space="preserve" fill="#a78bfa">╰───────────────────────────────────────────────────────────╯</text>
    <text x="41.6" y="480" textLength="38.4" lengthAdjust="spacingAndGlyphs" xml:space="preserve" fill="#b9a7e6">↑↓←→</text>
    <text x="89.6" y="480" textLength="38.4" lengthAdjust="spacingAndGlyphs" xml:space="preserve" fill-opacity="0.55">Move</text>
    <text x="156.8" y="480" textLength="9.6" lengthAdjust="spacingAndGlyphs" xml:space="preserve" fill="#b9a7e6">d</text>
    <text x="176" y="480" textLength="76.8" lengthAdjust="spacingAndGlyphs" xml:space="preserve" fill-opacity="0.55">Download</text>
    <text x="281.6" y="480" textLength="9.6" lengthAdjust="spacingAndGlyphs" xml:space="preserve" fill="#b9a7e6">i</text>
    <text x="300.8" y="480" textLength="48" lengthAdjust="spacingAndGlyphs" xml:space="preserve" fill-opacity="0.55">Files</text>
    <text x="377.6" y="480" textLength="9.6" lengthAdjust="spacingAndGlyphs" xml:space="preserve" fill="#b9a7e6">y</text>
    <text x="396.8" y="480" textLength="38.4" lengthAdjust="spacingAndGlyphs" xml:space="preserve" fill-opacity="0.55">Copy</text>
    <text x="464" y="480" textLength="9.6" lengthAdjust="spacingAndGlyphs" xml:space="preserve" fill="#b9a7e6">s</text>
    <text x="483.2" y="480" textLength="38.4" lengthAdjust="spacingAndGlyphs" xml:space="preserve" fill-opacity="0.55">Sort</text>
    <text x="550.4" y="480" textLength="9.6" lengthAdjust="spacingAndGlyphs" xml:space="preserve" fill="#b9a7e6">/</text>
    <text x="569.6" y="480" textLength="57.6" lengthAdjust="spacingAndGlyphs" xml:space="preserve" fill-opacity="0.55">Search</text>
    <text x="656" y="480" textLength="9.6" lengthAdjust="spacingAndGlyphs" xml:space="preserve" fill="#b9a7e6">f</text>
    <text x="675.2" y="480" textLength="57.6" lengthAdjust="spacingAndGlyphs" xml:space="preserve" fill-opacity="0.55">Filter</text>
    <text x="761.6" y="480" textLength="9.6" lengthAdjust="spacingAndGlyphs" xml:space="preserve" fill="#b9a7e6">b</text>
    <text x="780.8" y="480" textLength="9.6" lengthAdjust="spacingAndGlyphs" xml:space="preserve" fill="#ee7d92">…</text>
  </g>
</svg>