<?xml version="1.0" encoding="UTF-8"?>
<svg xmlns="http://www.w3.org/2000/svg" width="832" height="364" viewBox="0 0 832 364" style="max-width: 832px; width: 100%; height: auto;" role="img">
  <rect width="100%" height="100%" rx="14" fill="#0a0810"/>
  <rect x="0.5" y="0.5" width="831" height="363" rx="14" fill="none" stroke="#2d2b31" stroke-width="1"/>
  <text x="416" y="23" text-anchor="middle" font-family='ui-monospace, "Cascadia Mono", "SF Mono", Menlo, Consolas, "DejaVu Sans Mono", monospace' font-size="13" fill="#8a8a8a">klink</text>
  <g font-family='ui-monospace, "Cascadia Mono", "SF Mono", Menlo, Consolas, "DejaVu Sans Mono", monospace' font-size="16" fill="#ddd8ea">
    <rect x="315.2" y="68" width="4.8" height="22" fill="#c8d0d8"/>
    <rect x="320" y="68" width="9.6" height="11" fill="#c8d0d8"/>
    <rect x="329.6" y="68" width="4.8" height="22" fill="#c8d0d8"/>
    <rect x="348.8" y="68" width="9.6" height="22" fill="#e06c75"/>
    <rect x="358.4" y="79" width="9.6" height="11" fill="#e06c75"/>
    <rect x="368" y="68" width="9.6" height="11" fill="#e06c75"/>
    <rect x="387.2" y="68" width="9.6" height="22" fill="#d0adfd"/>
    <rect x="425.6" y="68" width="9.6" height="22" fill="#bd9efc"/>
    <rect x="444.8" y="68" width="9.6" height="22" fill="#b496fb"/>
    <rect x="454.4" y="79" width="9.6" height="11" fill="#af92fb"/>
    <rect x="473.6" y="68" width="9.6" height="22" fill="#a68af9"/>
    <rect x="492.8" y="68" width="9.6" height="22" fill="#9f83f4"/>
    <rect x="502.4" y="79" width="9.6" height="11" fill="#9c7ff1"/>
    <rect x="512" y="68" width="9.6" height="11" fill="#997bee"/>
    <rect x="315.2" y="90" width="4.8" height="22" fill="#e5c07b"/>
    <rect x="320" y="90" width="9.6" height="22" fill="#e5c07b"/>
    <rect x="329.6" y="90" width="4.8" height="22" fill="#e5c07b"/>
    <rect x="348.8" y="90" width="9.6" height="22" fill="#e06c75"/>
    <rect x="368" y="90" width="9.6" height="22" fill="#e06c75"/>
    <rect x="387.2" y="90" width="9.6" height="22" fill="#7d5dd7"/>
    <rect x="396.8" y="101" width="9.6" height="11" fill="#7a5ad2"/>
    <rect x="406.4" y="101" width="9.6" height="11" fill="#7658cc"/>
    <rect x="425.6" y="90" width="9.6" height="22" fill="#6e52c0"/>
    <rect x="444.8" y="90" width="9.6" height="22" fill="#674db4"/>
    <rect x="464" y="90" width="9.6" height="11" fill="#5f47a8"/>
    <rect x="473.6" y="90" width="9.6" height="22" fill="#5b45a2"/>
    <rect x="492.8" y="90" width="9.6" height="22" fill="#543f96"/>
    <rect x="512" y="90" width="9.6" height="22" fill="#4c3a8a"/>
    <text x="195.2" y="172" textLength="441.6" lengthAdjust="spacingAndGlyphs" xml:space="preserve" fill="#e9e4f5">A curated, terminal-native torrent downloader.</text>
    <text x="262.4" y="194" textLength="316.8" lengthAdjust="spacingAndGlyphs" xml:space="preserve" fill-opacity="0.55">games  ·  movies  ·  tv  ·  anime</text>
    <text x="118.4" y="238" textLength="19.2" lengthAdjust="spacingAndGlyphs" xml:space="preserve" fill="#a78bfa">╭─</text>
    <text x="147.2" y="238" textLength="57.6" lengthAdjust="spacingAndGlyphs" xml:space="preserve" fill="#a78bfa" font-weight="600">Search</text>
    <text x="214.4" y="238" textLength="499.2" lengthAdjust="spacingAndGlyphs" xml:space="preserve" fill="#a78bfa">───────────────────────────────────────────────────╮</text>
    <rect x="122.5" y="244" width="1.4" height="22" fill="#a78bfa"/>
    <text x="137.6" y="260" textLength="9.6" lengthAdjust="spacingAndGlyphs" xml:space="preserve" fill="#a78bfa">❯</text>
    <rect x="156.8" y="244" width="9.6" height="22" fill="#ddd8ea"/>
    <text x="156.8" y="260" textLength="9.6" lengthAdjust="spacingAndGlyphs" xml:space="preserve" fill="#0a0810">S</text>
    <text x="166.4" y="260" textLength="278.4" lengthAdjust="spacingAndGlyphs" xml:space="preserve" fill-opacity="0.55">earch or paste a magnet link…</text>
    <rect x="708.1" y="244" width="1.4" height="22" fill="#a78bfa"/>
    <text x="118.4" y="282" textLength="595.2" lengthAdjust="spacingAndGlyphs" xml:space="preserve" fill="#a78bfa">╰────────────────────────────────────────────────────────────╯</text>
    <text x="233.6" y="326" textLength="9.6" lengthAdjust="spacingAndGlyphs" xml:space="preserve" fill="#b9a7e6">↵</text>
    <text x="252.8" y="326" textLength="153.6" lengthAdjust="spacingAndGlyphs" xml:space="preserve" fill-opacity="0.55">search  ·  empty</text>
    <text x="416" y="326" textLength="9.6" lengthAdjust="spacingAndGlyphs" xml:space="preserve" fill="#b9a7e6">↵</text>
    <text x="435.2" y="326" textLength="86.4" lengthAdjust="spacingAndGlyphs" xml:space="preserve" fill-opacity="0.55">browse  ·</text>
    <text x="540.8" y="326" textLength="19.2" lengthAdjust="spacingAndGlyphs" xml:space="preserve" fill="#b9a7e6">^c</text>
    <text x="569.6" y="326" textLength="38.4" lengthAdjust="spacingAndGlyphs" xml:space="preserve" fill-opacity="0.55">quit</text>
  </g>
</svg>